<svg width="600" height="400" viewBox="0 0 600 400" xmlns="http://www.w3.org/2000/svg">
<rect x="0" y="0" width="599" height="399" opacity="1" fill="#000000" stroke="none"/>
<line opacity="0.1" stroke="#000000" stroke-width="1" x1="0" y1="399" x2="0" y2="-1"/>
<line opacity="0.1" stroke="#000000" stroke-width="1" x1="9" y1="399" x2="9" y2="-1"/>
<line opacity="0.1" stroke="#000000" stroke-width="1" x1="18" y1="399" x2="18" y2="-1"/>
<line opacity="0.1" stroke="#000000" stroke-width="1" x1="27" y1="399" x2="27" y2="-1"/>
<line opacity="0.1" stroke="#000000" stroke-width="1" x1="36" y1="399" x2="36" y2="-1"/>
<line opacity="0.1" stroke="#000000" stroke-width="1" x1="45" y1="399" x2="45" y2="-1"/>
<line opacity="0.1" stroke="#000000" stroke-width="1" x1="54" y1="399" x2="54" y2="-1"/>
<line opacity="0.1" stroke="#000000" stroke-width="1" x1="63" y1="399" x2="63" y2="-1"/>
<line opacity="0.1" stroke="#000000" stroke-width="1" x1="72" y1="399" x2="72" y2="-1"/>
<line opacity="0.1" stroke="#000000" stroke-width="1" x1="81" y1="399" x2="81" y2="-1"/>
<line opacity="0.1" stroke="#000000" stroke-width="1" x1="90" y1="399" x2="90" y2="-1"/>
<line opacity="0.1" stroke="#000000" stroke-width="1" x1="100" y1="399" x2="100" y2="-1"/>
<line opacity="0.1" stroke="#000000" stroke-width="1" x1="109" y1="399" x2="109" y2="-1"/>
<line opacity="0.1" stroke="#000000" stroke-width="1" x1="118" y1="399" x2="118" y2="-1"/>
<line opacity="0.1" stroke="#000000" stroke-width="1" x1="127" y1="399" x2="127" y2="-1"/>
<line opacity="0.1" stroke="#000000" stroke-width="1" x1="136" y1="399" x2="136" y2="-1"/>
<line opacity="0.1" stroke="#000000" stroke-width="1" x1="145" y1="399" x2="145" y2="-1"/>
<line opacity="0.1" stroke="#000000" stroke-width="1" x1="154" y1="399" x2="154" y2="-1"/>
<line opacity="0.1" stroke="#000000" stroke-width="1" x1="163" y1="399" x2="163" y2="-1"/>
<line opacity="0.1" stroke="#000000" stroke-width="1" x1="172" y1="399" x2="172" y2="-1"/>
<line opacity="0.1" stroke="#000000" stroke-width="1" x1="181" y1="399" x2="181" y2="-1"/>
<line opacity="0.1" stroke="#000000" stroke-width="1" x1="190" y1="399" x2="190" y2="-1"/>
<line opacity="0.1" stroke="#000000" stroke-width="1" x1="200" y1="399" x2="200" y2="-1"/>
<line opacity="0.1" stroke="#000000" stroke-width="1" x1="209" y1="399" x2="209" y2="-1"/>
<line opacity="0.1" stroke="#000000" stroke-width="1" x1="218" y1="399" x2="218" y2="-1"/>
<line opacity="0.1" stroke="#000000" stroke-width="1" x1="227" y1="399" x2="227" y2="-1"/>
<line opacity="0.1" stroke="#000000" stroke-width="1" x1="236" y1="399" x2="236" y2="-1"/>
<line opacity="0.1" stroke="#000000" stroke-width="1" x1="245" y1="399" x2="245" y2="-1"/>
<line opacity="0.1" stroke="#000000" stroke-width="1" x1="254" y1="399" x2="254" y2="-1"/>
<line opacity="0.1" stroke="#000000" stroke-width="1" x1="263" y1="399" x2="263" y2="-1"/>
<line opacity="0.1" stroke="#000000" stroke-width="1" x1="272" y1="399" x2="272" y2="-1"/>
<line opacity="0.1" stroke="#000000" stroke-width="1" x1="281" y1="399" x2="281" y2="-1"/>
<line opacity="0.1" stroke="#000000" stroke-width="1" x1="290" y1="399" x2="290" y2="-1"/>
<line opacity="0.1" stroke="#000000" stroke-width="1" x1="300" y1="399" x2="300" y2="-1"/>
<line opacity="0.1" stroke="#000000" stroke-width="1" x1="309" y1="399" x2="309" y2="-1"/>
<line opacity="0.1" stroke="#000000" stroke-width="1" x1="318" y1="399" x2="318" y2="-1"/>
<line opacity="0.1" stroke="#000000" stroke-width="1" x1="327" y1="399" x2="327" y2="-1"/>
<line opacity="0.1" stroke="#000000" stroke-width="1" x1="336" y1="399" x2="336" y2="-1"/>
<line opacity="0.1" stroke="#000000" stroke-width="1" x1="345" y1="399" x2="345" y2="-1"/>
<line opacity="0.1" stroke="#000000" stroke-width="1" x1="354" y1="399" x2="354" y2="-1"/>
<line opacity="0.1" stroke="#000000" stroke-width="1" x1="363" y1="399" x2="363" y2="-1"/>
<line opacity="0.1" stroke="#000000" stroke-width="1" x1="372" y1="399" x2="372" y2="-1"/>
<line opacity="0.1" stroke="#000000" stroke-width="1" x1="381" y1="399" x2="381" y2="-1"/>
<line opacity="0.1" stroke="#000000" stroke-width="1" x1="390" y1="399" x2="390" y2="-1"/>
<line opacity="0.1" stroke="#000000" stroke-width="1" x1="400" y1="399" x2="400" y2="-1"/>
<line opacity="0.1" stroke="#000000" stroke-width="1" x1="409" y1="399" x2="409" y2="-1"/>
<line opacity="0.1" stroke="#000000" stroke-width="1" x1="418" y1="399" x2="418" y2="-1"/>
<line opacity="0.1" stroke="#000000" stroke-width="1" x1="427" y1="399" x2="427" y2="-1"/>
<line opacity="0.1" stroke="#000000" stroke-width="1" x1="436" y1="399" x2="436" y2="-1"/>
<line opacity="0.1" stroke="#000000" stroke-width="1" x1="445" y1="399" x2="445" y2="-1"/>
<line opacity="0.1" stroke="#000000" stroke-width="1" x1="454" y1="399" x2="454" y2="-1"/>
<line opacity="0.1" stroke="#000000" stroke-width="1" x1="463" y1="399" x2="463" y2="-1"/>
<line opacity="0.1" stroke="#000000" stroke-width="1" x1="472" y1="399" x2="472" y2="-1"/>
<line opacity="0.1" stroke="#000000" stroke-width="1" x1="481" y1="399" x2="481" y2="-1"/>
<line opacity="0.1" stroke="#000000" stroke-width="1" x1="490" y1="399" x2="490" y2="-1"/>
<line opacity="0.1" stroke="#000000" stroke-width="1" x1="500" y1="399" x2="500" y2="-1"/>
<line opacity="0.1" stroke="#000000" stroke-width="1" x1="509" y1="399" x2="509" y2="-1"/>
<line opacity="0.1" stroke="#000000" stroke-width="1" x1="518" y1="399" x2="518" y2="-1"/>
<line opacity="0.1" stroke="#000000" stroke-width="1" x1="527" y1="399" x2="527" y2="-1"/>
<line opacity="0.1" stroke="#000000" stroke-width="1" x1="536" y1="399" x2="536" y2="-1"/>
<line opacity="0.1" stroke="#000000" stroke-width="1" x1="545" y1="399" x2="545" y2="-1"/>
<line opacity="0.1" stroke="#000000" stroke-width="1" x1="554" y1="399" x2="554" y2="-1"/>
<line opacity="0.1" stroke="#000000" stroke-width="1" x1="563" y1="399" x2="563" y2="-1"/>
<line opacity="0.1" stroke="#000000" stroke-width="1" x1="572" y1="399" x2="572" y2="-1"/>
<line opacity="0.1" stroke="#000000" stroke-width="1" x1="581" y1="399" x2="581" y2="-1"/>
<line opacity="0.1" stroke="#000000" stroke-width="1" x1="590" y1="399" x2="590" y2="-1"/>
<line opacity="0.1" stroke="#000000" stroke-width="1" x1="600" y1="399" x2="600" y2="-1"/>
<line opacity="0.1" stroke="#000000" stroke-width="1" x1="0" y1="399" x2="600" y2="399"/>
<line opacity="0.1" stroke="#000000" stroke-width="1" x1="0" y1="349" x2="600" y2="349"/>
<line opacity="0.1" stroke="#000000" stroke-width="1" x1="0" y1="299" x2="600" y2="299"/>
<line opacity="0.1" stroke="#000000" stroke-width="1" x1="0" y1="249" x2="600" y2="249"/>
<line opacity="0.1" stroke="#000000" stroke-width="1" x1="0" y1="199" x2="600" y2="199"/>
<line opacity="0.1" stroke="#000000" stroke-width="1" x1="0" y1="149" x2="600" y2="149"/>
<line opacity="0.1" stroke="#000000" stroke-width="1" x1="0" y1="99" x2="600" y2="99"/>
<line opacity="0.1" stroke="#000000" stroke-width="1" x1="0" y1="49" x2="600" y2="49"/>
<line opacity="0.1" stroke="#000000" stroke-width="1" x1="0" y1="-1" x2="600" y2="-1"/>
<line opacity="0.2" stroke="#000000" stroke-width="1" x1="0" y1="399" x2="0" y2="-1"/>
<line opacity="0.2" stroke="#000000" stroke-width="1" x1="90" y1="399" x2="90" y2="-1"/>
<line opacity="0.2" stroke="#000000" stroke-width="1" x1="181" y1="399" x2="181" y2="-1"/>
<line opacity="0.2" stroke="#000000" stroke-width="1" x1="272" y1="399" x2="272" y2="-1"/>
<line opacity="0.2" stroke="#000000" stroke-width="1" x1="363" y1="399" x2="363" y2="-1"/>
<line opacity="0.2" stroke="#000000" stroke-width="1" x1="454" y1="399" x2="454" y2="-1"/>
<line opacity="0.2" stroke="#000000" stroke-width="1" x1="545" y1="399" x2="545" y2="-1"/>
<line opacity="0.2" stroke="#000000" stroke-width="1" x1="0" y1="399" x2="600" y2="399"/>
<line opacity="0.2" stroke="#000000" stroke-width="1" x1="0" y1="349" x2="600" y2="349"/>
<line opacity="0.2" stroke="#000000" stroke-width="1" x1="0" y1="299" x2="600" y2="299"/>
<line opacity="0.2" stroke="#000000" stroke-width="1" x1="0" y1="249" x2="600" y2="249"/>
<line opacity="0.2" stroke="#000000" stroke-width="1" x1="0" y1="199" x2="600" y2="199"/>
<line opacity="0.2" stroke="#000000" stroke-width="1" x1="0" y1="149" x2="600" y2="149"/>
<line opacity="0.2" stroke="#000000" stroke-width="1" x1="0" y1="99" x2="600" y2="99"/>
<line opacity="0.2" stroke="#000000" stroke-width="1" x1="0" y1="49" x2="600" y2="49"/>
<line opacity="0.2" stroke="#000000" stroke-width="1" x1="0" y1="-1" x2="600" y2="-1"/>
<circle cx="0" cy="349" r="1" opacity="1" fill="none" stroke="#FF0000" stroke-width="1"/>
<circle cx="9" cy="349" r="1" opacity="1" fill="none" stroke="#FF0000" stroke-width="1"/>
<circle cx="18" cy="349" r="1" opacity="1" fill="none" stroke="#FF0000" stroke-width="1"/>
<circle cx="27" cy="349" r="1" opacity="1" fill="none" stroke="#FF0000" stroke-width="1"/>
<circle cx="36" cy="349" r="1" opacity="1" fill="none" stroke="#FF0000" stroke-width="1"/>
<circle cx="0" cy="299" r="1" opacity="1" fill="none" stroke="#FF0000" stroke-width="1"/>
<circle cx="9" cy="299" r="1" opacity="1" fill="none" stroke="#FF0000" stroke-width="1"/>
<circle cx="18" cy="299" r="1" opacity="1" fill="none" stroke="#FF0000" stroke-width="1"/>
<circle cx="27" cy="299" r="1" opacity="1" fill="none" stroke="#FF0000" stroke-width="1"/>
<circle cx="36" cy="299" r="1" opacity="1" fill="none" stroke="#FF0000" stroke-width="1"/>
<circle cx="45" cy="299" r="1" opacity="1" fill="none" stroke="#FF0000" stroke-width="1"/>
<circle cx="54" cy="299" r="1" opacity="1" fill="none" stroke="#FF0000" stroke-width="1"/>
<circle cx="63" cy="299" r="1" opacity="1" fill="none" stroke="#FF0000" stroke-width="1"/>
<circle cx="72" cy="299" r="1" opacity="1" fill="none" stroke="#FF0000" stroke-width="1"/>
<circle cx="81" cy="299" r="1" opacity="1" fill="none" stroke="#FF0000" stroke-width="1"/>
<circle cx="90" cy="299" r="1" opacity="1" fill="none" stroke="#FF0000" stroke-width="1"/>
<circle cx="100" cy="299" r="1" opacity="1" fill="none" stroke="#FF0000" stroke-width="1"/>
<circle cx="109" cy="299" r="1" opacity="1" fill="none" stroke="#FF0000" stroke-width="1"/>
<circle cx="118" cy="299" r="1" opacity="1" fill="none" stroke="#FF0000" stroke-width="1"/>
<circle cx="127" cy="299" r="1" opacity="1" fill="none" stroke="#FF0000" stroke-width="1"/>
<circle cx="136" cy="299" r="1" opacity="1" fill="none" stroke="#FF0000" stroke-width="1"/>
<circle cx="145" cy="299" r="1" opacity="1" fill="none" stroke="#FF0000" stroke-width="1"/>
<circle cx="154" cy="299" r="1" opacity="1" fill="none" stroke="#FF0000" stroke-width="1"/>
<circle cx="163" cy="299" r="1" opacity="1" fill="none" stroke="#FF0000" stroke-width="1"/>
<circle cx="172" cy="299" r="1" opacity="1" fill="none" stroke="#FF0000" stroke-width="1"/>
<circle cx="181" cy="299" r="1" opacity="1" fill="none" stroke="#FF0000" stroke-width="1"/>
<circle cx="190" cy="299" r="1" opacity="1" fill="none" stroke="#FF0000" stroke-width="1"/>
<circle cx="200" cy="299" r="1" opacity="1" fill="none" stroke="#FF0000" stroke-width="1"/>
<circle cx="209" cy="299" r="1" opacity="1" fill="none" stroke="#FF0000" stroke-width="1"/>
<circle cx="218" cy="299" r="1" opacity="1" fill="none" stroke="#FF0000" stroke-width="1"/>
<circle cx="227" cy="299" r="1" opacity="1" fill="none" stroke="#FF0000" stroke-width="1"/>
<circle cx="236" cy="299" r="1" opacity="1" fill="none" stroke="#FF0000" stroke-width="1"/>
<circle cx="245" cy="299" r="1" opacity="1" fill="none" stroke="#FF0000" stroke-width="1"/>
<circle cx="254" cy="299" r="1" opacity="1" fill="none" stroke="#FF0000" stroke-width="1"/>
<circle cx="263" cy="299" r="1" opacity="1" fill="none" stroke="#FF0000" stroke-width="1"/>
<circle cx="272" cy="299" r="1" opacity="1" fill="none" stroke="#FF0000" stroke-width="1"/>
<circle cx="300" cy="299" r="1" opacity="1" fill="none" stroke="#FF0000" stroke-width="1"/>
<circle cx="309" cy="299" r="1" opacity="1" fill="none" stroke="#FF0000" stroke-width="1"/>
<circle cx="318" cy="299" r="1" opacity="1" fill="none" stroke="#FF0000" stroke-width="1"/>
<circle cx="390" cy="299" r="1" opacity="1" fill="none" stroke="#FF0000" stroke-width="1"/>
<circle cx="400" cy="299" r="1" opacity="1" fill="none" stroke="#FF0000" stroke-width="1"/>
<circle cx="409" cy="299" r="1" opacity="1" fill="none" stroke="#FF0000" stroke-width="1"/>
<circle cx="418" cy="299" r="1" opacity="1" fill="none" stroke="#FF0000" stroke-width="1"/>
<circle cx="427" cy="299" r="1" opacity="1" fill="none" stroke="#FF0000" stroke-width="1"/>
<circle cx="436" cy="299" r="1" opacity="1" fill="none" stroke="#FF0000" stroke-width="1"/>
<circle cx="445" cy="299" r="1" opacity="1" fill="none" stroke="#FF0000" stroke-width="1"/>
<circle cx="454" cy="299" r="1" opacity="1" fill="none" stroke="#FF0000" stroke-width="1"/>
<circle cx="463" cy="299" r="1" opacity="1" fill="none" stroke="#FF0000" stroke-width="1"/>
<circle cx="472" cy="299" r="1" opacity="1" fill="none" stroke="#FF0000" stroke-width="1"/>
<circle cx="481" cy="299" r="1" opacity="1" fill="none" stroke="#FF0000" stroke-width="1"/>
<circle cx="490" cy="299" r="1" opacity="1" fill="none" stroke="#FF0000" stroke-width="1"/>
<circle cx="500" cy="299" r="1" opacity="1" fill="none" stroke="#FF0000" stroke-width="1"/>
<circle cx="509" cy="299" r="1" opacity="1" fill="none" stroke="#FF0000" stroke-width="1"/>
<circle cx="518" cy="299" r="1" opacity="1" fill="none" stroke="#FF0000" stroke-width="1"/>
<circle cx="527" cy="299" r="1" opacity="1" fill="none" stroke="#FF0000" stroke-width="1"/>
<circle cx="536" cy="299" r="1" opacity="1" fill="none" stroke="#FF0000" stroke-width="1"/>
<circle cx="545" cy="299" r="1" opacity="1" fill="none" stroke="#FF0000" stroke-width="1"/>
<circle cx="554" cy="299" r="1" opacity="1" fill="none" stroke="#FF0000" stroke-width="1"/>
<circle cx="563" cy="299" r="1" opacity="1" fill="none" stroke="#FF0000" stroke-width="1"/>
<circle cx="572" cy="299" r="1" opacity="1" fill="none" stroke="#FF0000" stroke-width="1"/>
<circle cx="581" cy="299" r="1" opacity="1" fill="none" stroke="#FF0000" stroke-width="1"/>
<circle cx="0" cy="249" r="1" opacity="1" fill="none" stroke="#FF0000" stroke-width="1"/>
<circle cx="9" cy="249" r="1" opacity="1" fill="none" stroke="#FF0000" stroke-width="1"/>
<circle cx="18" cy="249" r="1" opacity="1" fill="none" stroke="#FF0000" stroke-width="1"/>
<circle cx="27" cy="249" r="1" opacity="1" fill="none" stroke="#FF0000" stroke-width="1"/>
<circle cx="36" cy="249" r="1" opacity="1" fill="none" stroke="#FF0000" stroke-width="1"/>
<circle cx="45" cy="249" r="1" opacity="1" fill="none" stroke="#FF0000" stroke-width="1"/>
<circle cx="54" cy="249" r="1" opacity="1" fill="none" stroke="#FF0000" stroke-width="1"/>
<circle cx="63" cy="249" r="1" opacity="1" fill="none" stroke="#FF0000" stroke-width="1"/>
<circle cx="72" cy="249" r="1" opacity="1" fill="none" stroke="#FF0000" stroke-width="1"/>
<circle cx="81" cy="249" r="1" opacity="1" fill="none" stroke="#FF0000" stroke-width="1"/>
<circle cx="90" cy="249" r="1" opacity="1" fill="none" stroke="#FF0000" stroke-width="1"/>
<circle cx="100" cy="249" r="1" opacity="1" fill="none" stroke="#FF0000" stroke-width="1"/>
<circle cx="109" cy="249" r="1" opacity="1" fill="none" stroke="#FF0000" stroke-width="1"/>
<circle cx="118" cy="249" r="1" opacity="1" fill="none" stroke="#FF0000" stroke-width="1"/>
<circle cx="127" cy="249" r="1" opacity="1" fill="none" stroke="#FF0000" stroke-width="1"/>
<circle cx="136" cy="249" r="1" opacity="1" fill="none" stroke="#FF0000" stroke-width="1"/>
<circle cx="145" cy="249" r="1" opacity="1" fill="none" stroke="#FF0000" stroke-width="1"/>
<circle cx="154" cy="249" r="1" opacity="1" fill="none" stroke="#FF0000" stroke-width="1"/>
<circle cx="163" cy="249" r="1" opacity="1" fill="none" stroke="#FF0000" stroke-width="1"/>
<circle cx="172" cy="249" r="1" opacity="1" fill="none" stroke="#FF0000" stroke-width="1"/>
<circle cx="181" cy="249" r="1" opacity="1" fill="none" stroke="#FF0000" stroke-width="1"/>
<circle cx="190" cy="249" r="1" opacity="1" fill="none" stroke="#FF0000" stroke-width="1"/>
<circle cx="200" cy="249" r="1" opacity="1" fill="none" stroke="#FF0000" stroke-width="1"/>
<circle cx="209" cy="249" r="1" opacity="1" fill="none" stroke="#FF0000" stroke-width="1"/>
<circle cx="218" cy="249" r="1" opacity="1" fill="none" stroke="#FF0000" stroke-width="1"/>
<circle cx="227" cy="249" r="1" opacity="1" fill="none" stroke="#FF0000" stroke-width="1"/>
<circle cx="236" cy="249" r="1" opacity="1" fill="none" stroke="#FF0000" stroke-width="1"/>
<circle cx="245" cy="249" r="1" opacity="1" fill="none" stroke="#FF0000" stroke-width="1"/>
<circle cx="254" cy="249" r="1" opacity="1" fill="none" stroke="#FF0000" stroke-width="1"/>
<circle cx="263" cy="249" r="1" opacity="1" fill="none" stroke="#FF0000" stroke-width="1"/>
<circle cx="272" cy="249" r="1" opacity="1" fill="none" stroke="#FF0000" stroke-width="1"/>
<circle cx="300" cy="249" r="1" opacity="1" fill="none" stroke="#FF0000" stroke-width="1"/>
<circle cx="309" cy="249" r="1" opacity="1" fill="none" stroke="#FF0000" stroke-width="1"/>
<circle cx="318" cy="249" r="1" opacity="1" fill="none" stroke="#FF0000" stroke-width="1"/>
<circle cx="390" cy="249" r="1" opacity="1" fill="none" stroke="#FF0000" stroke-width="1"/>
<circle cx="400" cy="249" r="1" opacity="1" fill="none" stroke="#FF0000" stroke-width="1"/>
<circle cx="409" cy="249" r="1" opacity="1" fill="none" stroke="#FF0000" stroke-width="1"/>
<circle cx="418" cy="249" r="1" opacity="1" fill="none" stroke="#FF0000" stroke-width="1"/>
<circle cx="427" cy="249" r="1" opacity="1" fill="none" stroke="#FF0000" stroke-width="1"/>
<circle cx="436" cy="249" r="1" opacity="1" fill="none" stroke="#FF0000" stroke-width="1"/>
<circle cx="445" cy="249" r="1" opacity="1" fill="none" stroke="#FF0000" stroke-width="1"/>
<circle cx="454" cy="249" r="1" opacity="1" fill="none" stroke="#FF0000" stroke-width="1"/>
<circle cx="463" cy="249" r="1" opacity="1" fill="none" stroke="#FF0000" stroke-width="1"/>
<circle cx="472" cy="249" r="1" opacity="1" fill="none" stroke="#FF0000" stroke-width="1"/>
<circle cx="481" cy="249" r="1" opacity="1" fill="none" stroke="#FF0000" stroke-width="1"/>
<circle cx="490" cy="249" r="1" opacity="1" fill="none" stroke="#FF0000" stroke-width="1"/>
<circle cx="500" cy="249" r="1" opacity="1" fill="none" stroke="#FF0000" stroke-width="1"/>
<circle cx="509" cy="249" r="1" opacity="1" fill="none" stroke="#FF0000" stroke-width="1"/>
<circle cx="518" cy="249" r="1" opacity="1" fill="none" stroke="#FF0000" stroke-width="1"/>
<circle cx="527" cy="249" r="1" opacity="1" fill="none" stroke="#FF0000" stroke-width="1"/>
<circle cx="536" cy="249" r="1" opacity="1" fill="none" stroke="#FF0000" stroke-width="1"/>
<circle cx="545" cy="249" r="1" opacity="1" fill="none" stroke="#FF0000" stroke-width="1"/>
<circle cx="554" cy="249" r="1" opacity="1" fill="none" stroke="#FF0000" stroke-width="1"/>
<circle cx="563" cy="249" r="1" opacity="1" fill="none" stroke="#FF0000" stroke-width="1"/>
<circle cx="572" cy="249" r="1" opacity="1" fill="none" stroke="#FF0000" stroke-width="1"/>
<circle cx="581" cy="249" r="1" opacity="1" fill="none" stroke="#FF0000" stroke-width="1"/>
<circle cx="0" cy="199" r="1" opacity="1" fill="none" stroke="#FF0000" stroke-width="1"/>
<circle cx="9" cy="199" r="1" opacity="1" fill="none" stroke="#FF0000" stroke-width="1"/>
<circle cx="18" cy="199" r="1" opacity="1" fill="none" stroke="#FF0000" stroke-width="1"/>
<circle cx="27" cy="199" r="1" opacity="1" fill="none" stroke="#FF0000" stroke-width="1"/>
<circle cx="36" cy="199" r="1" opacity="1" fill="none" stroke="#FF0000" stroke-width="1"/>
<circle cx="45" cy="199" r="1" opacity="1" fill="none" stroke="#FF0000" stroke-width="1"/>
<circle cx="54" cy="199" r="1" opacity="1" fill="none" stroke="#FF0000" stroke-width="1"/>
<circle cx="63" cy="199" r="1" opacity="1" fill="none" stroke="#FF0000" stroke-width="1"/>
<circle cx="72" cy="199" r="1" opacity="1" fill="none" stroke="#FF0000" stroke-width="1"/>
<circle cx="81" cy="199" r="1" opacity="1" fill="none" stroke="#FF0000" stroke-width="1"/>
<circle cx="90" cy="199" r="1" opacity="1" fill="none" stroke="#FF0000" stroke-width="1"/>
<circle cx="100" cy="199" r="1" opacity="1" fill="none" stroke="#FF0000" stroke-width="1"/>
<circle cx="109" cy="199" r="1" opacity="1" fill="none" stroke="#FF0000" stroke-width="1"/>
<circle cx="118" cy="199" r="1" opacity="1" fill="none" stroke="#FF0000" stroke-width="1"/>
<circle cx="127" cy="199" r="1" opacity="1" fill="none" stroke="#FF0000" stroke-width="1"/>
<circle cx="136" cy="199" r="1" opacity="1" fill="none" stroke="#FF0000" stroke-width="1"/>
<circle cx="145" cy="199" r="1" opacity="1" fill="none" stroke="#FF0000" stroke-width="1"/>
<circle cx="154" cy="199" r="1" opacity="1" fill="none" stroke="#FF0000" stroke-width="1"/>
<circle cx="163" cy="199" r="1" opacity="1" fill="none" stroke="#FF0000" stroke-width="1"/>
<circle cx="172" cy="199" r="1" opacity="1" fill="none" stroke="#FF0000" stroke-width="1"/>
<circle cx="181" cy="199" r="1" opacity="1" fill="none" stroke="#FF0000" stroke-width="1"/>
<circle cx="190" cy="199" r="1" opacity="1" fill="none" stroke="#FF0000" stroke-width="1"/>
<circle cx="200" cy="199" r="1" opacity="1" fill="none" stroke="#FF0000" stroke-width="1"/>
<circle cx="209" cy="199" r="1" opacity="1" fill="none" stroke="#FF0000" stroke-width="1"/>
<circle cx="218" cy="199" r="1" opacity="1" fill="none" stroke="#FF0000" stroke-width="1"/>
<circle cx="227" cy="199" r="1" opacity="1" fill="none" stroke="#FF0000" stroke-width="1"/>
<circle cx="236" cy="199" r="1" opacity="1" fill="none" stroke="#FF0000" stroke-width="1"/>
<circle cx="245" cy="199" r="1" opacity="1" fill="none" stroke="#FF0000" stroke-width="1"/>
<circle cx="254" cy="199" r="1" opacity="1" fill="none" stroke="#FF0000" stroke-width="1"/>
<circle cx="263" cy="199" r="1" opacity="1" fill="none" stroke="#FF0000" stroke-width="1"/>
<circle cx="272" cy="199" r="1" opacity="1" fill="none" stroke="#FF0000" stroke-width="1"/>
<circle cx="300" cy="199" r="1" opacity="1" fill="none" stroke="#FF0000" stroke-width="1"/>
<circle cx="309" cy="199" r="1" opacity="1" fill="none" stroke="#FF0000" stroke-width="1"/>
<circle cx="318" cy="199" r="1" opacity="1" fill="none" stroke="#FF0000" stroke-width="1"/>
<circle cx="390" cy="199" r="1" opacity="1" fill="none" stroke="#FF0000" stroke-width="1"/>
<circle cx="400" cy="199" r="1" opacity="1" fill="none" stroke="#FF0000" stroke-width="1"/>
<circle cx="409" cy="199" r="1" opacity="1" fill="none" stroke="#FF0000" stroke-width="1"/>
<circle cx="418" cy="199" r="1" opacity="1" fill="none" stroke="#FF0000" stroke-width="1"/>
<circle cx="427" cy="199" r="1" opacity="1" fill="none" stroke="#FF0000" stroke-width="1"/>
<circle cx="436" cy="199" r="1" opacity="1" fill="none" stroke="#FF0000" stroke-width="1"/>
<circle cx="445" cy="199" r="1" opacity="1" fill="none" stroke="#FF0000" stroke-width="1"/>
<circle cx="454" cy="199" r="1" opacity="1" fill="none" stroke="#FF0000" stroke-width="1"/>
<circle cx="463" cy="199" r="1" opacity="1" fill="none" stroke="#FF0000" stroke-width="1"/>
<circle cx="472" cy="199" r="1" opacity="1" fill="none" stroke="#FF0000" stroke-width="1"/>
<circle cx="481" cy="199" r="1" opacity="1" fill="none" stroke="#FF0000" stroke-width="1"/>
<circle cx="490" cy="199" r="1" opacity="1" fill="none" stroke="#FF0000" stroke-width="1"/>
<circle cx="500" cy="199" r="1" opacity="1" fill="none" stroke="#FF0000" stroke-width="1"/>
<circle cx="509" cy="199" r="1" opacity="1" fill="none" stroke="#FF0000" stroke-width="1"/>
<circle cx="518" cy="199" r="1" opacity="1" fill="none" stroke="#FF0000" stroke-width="1"/>
<circle cx="527" cy="199" r="1" opacity="1" fill="none" stroke="#FF0000" stroke-width="1"/>
<circle cx="536" cy="199" r="1" opacity="1" fill="none" stroke="#FF0000" stroke-width="1"/>
<circle cx="545" cy="199" r="1" opacity="1" fill="none" stroke="#FF0000" stroke-width="1"/>
<circle cx="554" cy="199" r="1" opacity="1" fill="none" stroke="#FF0000" stroke-width="1"/>
<circle cx="563" cy="199" r="1" opacity="1" fill="none" stroke="#FF0000" stroke-width="1"/>
<circle cx="572" cy="199" r="1" opacity="1" fill="none" stroke="#FF0000" stroke-width="1"/>
<circle cx="581" cy="199" r="1" opacity="1" fill="none" stroke="#FF0000" stroke-width="1"/>
<circle cx="0" cy="149" r="1" opacity="1" fill="none" stroke="#FF0000" stroke-width="1"/>
<circle cx="18" cy="149" r="1" opacity="1" fill="none" stroke="#FF0000" stroke-width="1"/>
<circle cx="27" cy="149" r="1" opacity="1" fill="none" stroke="#FF0000" stroke-width="1"/>
<circle cx="36" cy="149" r="1" opacity="1" fill="none" stroke="#FF0000" stroke-width="1"/>
<circle cx="45" cy="149" r="1" opacity="1" fill="none" stroke="#FF0000" stroke-width="1"/>
<circle cx="54" cy="149" r="1" opacity="1" fill="none" stroke="#FF0000" stroke-width="1"/>
<circle cx="63" cy="149" r="1" opacity="1" fill="none" stroke="#FF0000" stroke-width="1"/>
<circle cx="72" cy="149" r="1" opacity="1" fill="none" stroke="#FF0000" stroke-width="1"/>
<circle cx="81" cy="149" r="1" opacity="1" fill="none" stroke="#FF0000" stroke-width="1"/>
<circle cx="90" cy="149" r="1" opacity="1" fill="none" stroke="#FF0000" stroke-width="1"/>
<circle cx="100" cy="149" r="1" opacity="1" fill="none" stroke="#FF0000" stroke-width="1"/>
<circle cx="109" cy="149" r="1" opacity="1" fill="none" stroke="#FF0000" stroke-width="1"/>
<circle cx="118" cy="149" r="1" opacity="1" fill="none" stroke="#FF0000" stroke-width="1"/>
<circle cx="127" cy="149" r="1" opacity="1" fill="none" stroke="#FF0000" stroke-width="1"/>
<circle cx="136" cy="149" r="1" opacity="1" fill="none" stroke="#FF0000" stroke-width="1"/>
<circle cx="145" cy="149" r="1" opacity="1" fill="none" stroke="#FF0000" stroke-width="1"/>
<circle cx="154" cy="149" r="1" opacity="1" fill="none" stroke="#FF0000" stroke-width="1"/>
<circle cx="163" cy="149" r="1" opacity="1" fill="none" stroke="#FF0000" stroke-width="1"/>
<circle cx="172" cy="149" r="1" opacity="1" fill="none" stroke="#FF0000" stroke-width="1"/>
<circle cx="181" cy="149" r="1" opacity="1" fill="none" stroke="#FF0000" stroke-width="1"/>
<circle cx="190" cy="149" r="1" opacity="1" fill="none" stroke="#FF0000" stroke-width="1"/>
<circle cx="200" cy="149" r="1" opacity="1" fill="none" stroke="#FF0000" stroke-width="1"/>
<circle cx="209" cy="149" r="1" opacity="1" fill="none" stroke="#FF0000" stroke-width="1"/>
<circle cx="218" cy="149" r="1" opacity="1" fill="none" stroke="#FF0000" stroke-width="1"/>
<circle cx="227" cy="149" r="1" opacity="1" fill="none" stroke="#FF0000" stroke-width="1"/>
<circle cx="236" cy="149" r="1" opacity="1" fill="none" stroke="#FF0000" stroke-width="1"/>
<circle cx="245" cy="149" r="1" opacity="1" fill="none" stroke="#FF0000" stroke-width="1"/>
<circle cx="254" cy="149" r="1" opacity="1" fill="none" stroke="#FF0000" stroke-width="1"/>
<circle cx="263" cy="149" r="1" opacity="1" fill="none" stroke="#FF0000" stroke-width="1"/>
<circle cx="272" cy="149" r="1" opacity="1" fill="none" stroke="#FF0000" stroke-width="1"/>
<circle cx="300" cy="149" r="1" opacity="1" fill="none" stroke="#FF0000" stroke-width="1"/>
<circle cx="309" cy="149" r="1" opacity="1" fill="none" stroke="#FF0000" stroke-width="1"/>
<circle cx="318" cy="149" r="1" opacity="1" fill="none" stroke="#FF0000" stroke-width="1"/>
<circle cx="390" cy="149" r="1" opacity="1" fill="none" stroke="#FF0000" stroke-width="1"/>
<circle cx="400" cy="149" r="1" opacity="1" fill="none" stroke="#FF0000" stroke-width="1"/>
<circle cx="409" cy="149" r="1" opacity="1" fill="none" stroke="#FF0000" stroke-width="1"/>
<circle cx="418" cy="149" r="1" opacity="1" fill="none" stroke="#FF0000" stroke-width="1"/>
<circle cx="427" cy="149" r="1" opacity="1" fill="none" stroke="#FF0000" stroke-width="1"/>
<circle cx="436" cy="149" r="1" opacity="1" fill="none" stroke="#FF0000" stroke-width="1"/>
<circle cx="445" cy="149" r="1" opacity="1" fill="none" stroke="#FF0000" stroke-width="1"/>
<circle cx="454" cy="149" r="1" opacity="1" fill="none" stroke="#FF0000" stroke-width="1"/>
<circle cx="463" cy="149" r="1" opacity="1" fill="none" stroke="#FF0000" stroke-width="1"/>
<circle cx="472" cy="149" r="1" opacity="1" fill="none" stroke="#FF0000" stroke-width="1"/>
<circle cx="481" cy="149" r="1" opacity="1" fill="none" stroke="#FF0000" stroke-width="1"/>
<circle cx="490" cy="149" r="1" opacity="1" fill="none" stroke="#FF0000" stroke-width="1"/>
<circle cx="500" cy="149" r="1" opacity="1" fill="none" stroke="#FF0000" stroke-width="1"/>
<circle cx="509" cy="149" r="1" opacity="1" fill="none" stroke="#FF0000" stroke-width="1"/>
<circle cx="518" cy="149" r="1" opacity="1" fill="none" stroke="#FF0000" stroke-width="1"/>
<circle cx="527" cy="149" r="1" opacity="1" fill="none" stroke="#FF0000" stroke-width="1"/>
<circle cx="536" cy="149" r="1" opacity="1" fill="none" stroke="#FF0000" stroke-width="1"/>
<circle cx="545" cy="149" r="1" opacity="1" fill="none" stroke="#FF0000" stroke-width="1"/>
<circle cx="554" cy="149" r="1" opacity="1" fill="none" stroke="#FF0000" stroke-width="1"/>
<circle cx="563" cy="149" r="1" opacity="1" fill="none" stroke="#FF0000" stroke-width="1"/>
<circle cx="572" cy="149" r="1" opacity="1" fill="none" stroke="#FF0000" stroke-width="1"/>
<circle cx="581" cy="149" r="1" opacity="1" fill="none" stroke="#FF0000" stroke-width="1"/>
<circle cx="0" cy="99" r="1" opacity="1" fill="none" stroke="#FF0000" stroke-width="1"/>
<circle cx="18" cy="99" r="1" opacity="1" fill="none" stroke="#FF0000" stroke-width="1"/>
<circle cx="27" cy="99" r="1" opacity="1" fill="none" stroke="#FF0000" stroke-width="1"/>
<circle cx="36" cy="99" r="1" opacity="1" fill="none" stroke="#FF0000" stroke-width="1"/>
<circle cx="45" cy="99" r="1" opacity="1" fill="none" stroke="#FF0000" stroke-width="1"/>
<circle cx="54" cy="99" r="1" opacity="1" fill="none" stroke="#FF0000" stroke-width="1"/>
<circle cx="63" cy="99" r="1" opacity="1" fill="none" stroke="#FF0000" stroke-width="1"/>
<circle cx="72" cy="99" r="1" opacity="1" fill="none" stroke="#FF0000" stroke-width="1"/>
<circle cx="81" cy="99" r="1" opacity="1" fill="none" stroke="#FF0000" stroke-width="1"/>
<circle cx="90" cy="99" r="1" opacity="1" fill="none" stroke="#FF0000" stroke-width="1"/>
<circle cx="100" cy="99" r="1" opacity="1" fill="none" stroke="#FF0000" stroke-width="1"/>
<circle cx="109" cy="99" r="1" opacity="1" fill="none" stroke="#FF0000" stroke-width="1"/>
<circle cx="118" cy="99" r="1" opacity="1" fill="none" stroke="#FF0000" stroke-width="1"/>
<circle cx="127" cy="99" r="1" opacity="1" fill="none" stroke="#FF0000" stroke-width="1"/>
<circle cx="136" cy="99" r="1" opacity="1" fill="none" stroke="#FF0000" stroke-width="1"/>
<circle cx="145" cy="99" r="1" opacity="1" fill="none" stroke="#FF0000" stroke-width="1"/>
<circle cx="154" cy="99" r="1" opacity="1" fill="none" stroke="#FF0000" stroke-width="1"/>
<circle cx="163" cy="99" r="1" opacity="1" fill="none" stroke="#FF0000" stroke-width="1"/>
<circle cx="172" cy="99" r="1" opacity="1" fill="none" stroke="#FF0000" stroke-width="1"/>
<circle cx="181" cy="99" r="1" opacity="1" fill="none" stroke="#FF0000" stroke-width="1"/>
<circle cx="190" cy="99" r="1" opacity="1" fill="none" stroke="#FF0000" stroke-width="1"/>
<circle cx="200" cy="99" r="1" opacity="1" fill="none" stroke="#FF0000" stroke-width="1"/>
<circle cx="227" cy="99" r="1" opacity="1" fill="none" stroke="#FF0000" stroke-width="1"/>
<circle cx="236" cy="99" r="1" opacity="1" fill="none" stroke="#FF0000" stroke-width="1"/>
<circle cx="245" cy="99" r="1" opacity="1" fill="none" stroke="#FF0000" stroke-width="1"/>
<circle cx="254" cy="99" r="1" opacity="1" fill="none" stroke="#FF0000" stroke-width="1"/>
<circle cx="409" cy="99" r="1" opacity="1" fill="none" stroke="#FF0000" stroke-width="1"/>
<circle cx="418" cy="99" r="1" opacity="1" fill="none" stroke="#FF0000" stroke-width="1"/>
<circle cx="427" cy="99" r="1" opacity="1" fill="none" stroke="#FF0000" stroke-width="1"/>
<circle cx="436" cy="99" r="1" opacity="1" fill="none" stroke="#FF0000" stroke-width="1"/>
<circle cx="445" cy="99" r="1" opacity="1" fill="none" stroke="#FF0000" stroke-width="1"/>
<circle cx="454" cy="99" r="1" opacity="1" fill="none" stroke="#FF0000" stroke-width="1"/>
<circle cx="463" cy="99" r="1" opacity="1" fill="none" stroke="#FF0000" stroke-width="1"/>
<circle cx="472" cy="99" r="1" opacity="1" fill="none" stroke="#FF0000" stroke-width="1"/>
<circle cx="481" cy="99" r="1" opacity="1" fill="none" stroke="#FF0000" stroke-width="1"/>
<circle cx="490" cy="99" r="1" opacity="1" fill="none" stroke="#FF0000" stroke-width="1"/>
<circle cx="500" cy="99" r="1" opacity="1" fill="none" stroke="#FF0000" stroke-width="1"/>
<circle cx="509" cy="99" r="1" opacity="1" fill="none" stroke="#FF0000" stroke-width="1"/>
<circle cx="518" cy="99" r="1" opacity="1" fill="none" stroke="#FF0000" stroke-width="1"/>
<circle cx="527" cy="99" r="1" opacity="1" fill="none" stroke="#FF0000" stroke-width="1"/>
<circle cx="536" cy="99" r="1" opacity="1" fill="none" stroke="#FF0000" stroke-width="1"/>
<circle cx="545" cy="99" r="1" opacity="1" fill="none" stroke="#FF0000" stroke-width="1"/>
<circle cx="554" cy="99" r="1" opacity="1" fill="none" stroke="#FF0000" stroke-width="1"/>
<circle cx="563" cy="99" r="1" opacity="1" fill="none" stroke="#FF0000" stroke-width="1"/>
<circle cx="572" cy="99" r="1" opacity="1" fill="none" stroke="#FF0000" stroke-width="1"/>
<circle cx="581" cy="99" r="1" opacity="1" fill="none" stroke="#FF0000" stroke-width="1"/>
<circle cx="0" cy="49" r="1" opacity="1" fill="none" stroke="#FF0000" stroke-width="1"/>
<circle cx="18" cy="49" r="1" opacity="1" fill="none" stroke="#FF0000" stroke-width="1"/>
<circle cx="27" cy="49" r="1" opacity="1" fill="none" stroke="#FF0000" stroke-width="1"/>
<circle cx="36" cy="49" r="1" opacity="1" fill="none" stroke="#FF0000" stroke-width="1"/>
<circle cx="45" cy="49" r="1" opacity="1" fill="none" stroke="#FF0000" stroke-width="1"/>
<circle cx="54" cy="49" r="1" opacity="1" fill="none" stroke="#FF0000" stroke-width="1"/>
<circle cx="63" cy="49" r="1" opacity="1" fill="none" stroke="#FF0000" stroke-width="1"/>
<circle cx="72" cy="49" r="1" opacity="1" fill="none" stroke="#FF0000" stroke-width="1"/>
<circle cx="81" cy="49" r="1" opacity="1" fill="none" stroke="#FF0000" stroke-width="1"/>
<circle cx="90" cy="49" r="1" opacity="1" fill="none" stroke="#FF0000" stroke-width="1"/>
<circle cx="100" cy="49" r="1" opacity="1" fill="none" stroke="#FF0000" stroke-width="1"/>
<circle cx="109" cy="49" r="1" opacity="1" fill="none" stroke="#FF0000" stroke-width="1"/>
<circle cx="118" cy="49" r="1" opacity="1" fill="none" stroke="#FF0000" stroke-width="1"/>
<circle cx="127" cy="49" r="1" opacity="1" fill="none" stroke="#FF0000" stroke-width="1"/>
<circle cx="136" cy="49" r="1" opacity="1" fill="none" stroke="#FF0000" stroke-width="1"/>
<circle cx="145" cy="49" r="1" opacity="1" fill="none" stroke="#FF0000" stroke-width="1"/>
<circle cx="154" cy="49" r="1" opacity="1" fill="none" stroke="#FF0000" stroke-width="1"/>
<circle cx="163" cy="49" r="1" opacity="1" fill="none" stroke="#FF0000" stroke-width="1"/>
<circle cx="172" cy="49" r="1" opacity="1" fill="none" stroke="#FF0000" stroke-width="1"/>
<circle cx="181" cy="49" r="1" opacity="1" fill="none" stroke="#FF0000" stroke-width="1"/>
<circle cx="227" cy="49" r="1" opacity="1" fill="none" stroke="#FF0000" stroke-width="1"/>
<circle cx="236" cy="49" r="1" opacity="1" fill="none" stroke="#FF0000" stroke-width="1"/>
<circle cx="245" cy="49" r="1" opacity="1" fill="none" stroke="#FF0000" stroke-width="1"/>
<circle cx="254" cy="49" r="1" opacity="1" fill="none" stroke="#FF0000" stroke-width="1"/>
<circle cx="409" cy="49" r="1" opacity="1" fill="none" stroke="#FF0000" stroke-width="1"/>
<circle cx="418" cy="49" r="1" opacity="1" fill="none" stroke="#FF0000" stroke-width="1"/>
<circle cx="427" cy="49" r="1" opacity="1" fill="none" stroke="#FF0000" stroke-width="1"/>
<circle cx="436" cy="49" r="1" opacity="1" fill="none" stroke="#FF0000" stroke-width="1"/>
<circle cx="445" cy="49" r="1" opacity="1" fill="none" stroke="#FF0000" stroke-width="1"/>
<circle cx="454" cy="49" r="1" opacity="1" fill="none" stroke="#FF0000" stroke-width="1"/>
<circle cx="463" cy="49" r="1" opacity="1" fill="none" stroke="#FF0000" stroke-width="1"/>
<circle cx="472" cy="49" r="1" opacity="1" fill="none" stroke="#FF0000" stroke-width="1"/>
<circle cx="481" cy="49" r="1" opacity="1" fill="none" stroke="#FF0000" stroke-width="1"/>
<circle cx="490" cy="49" r="1" opacity="1" fill="none" stroke="#FF0000" stroke-width="1"/>
<circle cx="500" cy="49" r="1" opacity="1" fill="none" stroke="#FF0000" stroke-width="1"/>
<circle cx="518" cy="49" r="1" opacity="1" fill="none" stroke="#FF0000" stroke-width="1"/>
<circle cx="527" cy="49" r="1" opacity="1" fill="none" stroke="#FF0000" stroke-width="1"/>
<circle cx="536" cy="49" r="1" opacity="1" fill="none" stroke="#FF0000" stroke-width="1"/>
<circle cx="545" cy="49" r="1" opacity="1" fill="none" stroke="#FF0000" stroke-width="1"/>
<circle cx="554" cy="49" r="1" opacity="1" fill="none" stroke="#FF0000" stroke-width="1"/>
<circle cx="563" cy="49" r="1" opacity="1" fill="none" stroke="#FF0000" stroke-width="1"/>
<circle cx="572" cy="49" r="1" opacity="1" fill="none" stroke="#FF0000" stroke-width="1"/>
</svg>
